{
    "asset" : {
        "generator" : "Khronos glTF Blender I/O v1.2.75",
        "version" : "2.0"
    },
    "scene" : 0,
    "scenes" : [
        {
            "name" : "Scene",
            "nodes" : [
                0,
                1,
                2
            ]
        }
    ],
    "nodes" : [
        {
            "name" : "Light",
            "rotation" : [
                0.16907575726509094,
                0.7558803558349609,
                -0.27217137813568115,
                0.570947527885437
            ],
            "translation" : [
                4.076245307922363,
                5.903861999511719,
                -1.0054539442062378
            ]
        },
        {
            "name" : "Camera",
            "rotation" : [
                0.483536034822464,
                0.33687159419059753,
                -0.20870360732078552,
                0.7804827094078064
            ],
            "translation" : [
                7.358891487121582,
                4.958309173583984,
                6.925790786743164
            ]
        },
        {
            "mesh" : 0,
            "name" : "S1",
            "rotation" : [
                0.7071068286895752,
                0,
                0,
                0.7071067094802856
            ],
            "scale" : [
                0.20000004768371582,
                0.20000004768371582,
                0.20000004768371582
            ]
        }
    ],
    "materials" : [
        {
            "doubleSided" : true,
            "emissiveFactor" : [
                0,
                0,
                0
            ],
            "name" : "solar panels",
            "pbrMetallicRoughness" : {
                "baseColorFactor" : [
                    0.800000011920929,
                    0.800000011920929,
                    0.800000011920929,
                    1
                ],
                "metallicFactor" : 0,
                "roughnessFactor" : 0.4000000059604645
            }
        }
    ],
    "meshes" : [
        {
            "name" : "S1",
            "primitives" : [
                {
                    "attributes" : {
                        "POSITION" : 0,
                        "NORMAL" : 1,
                        "TEXCOORD_0" : 2
                    },
                    "indices" : 3,
                    "material" : 0
                },
                {
                    "attributes" : {
                        "POSITION" : 4,
                        "NORMAL" : 5,
                        "TEXCOORD_0" : 6
                    },
                    "indices" : 7
                },
                {
                    "attributes" : {
                        "POSITION" : 8,
                        "NORMAL" : 9,
                        "TEXCOORD_0" : 10
                    },
                    "indices" : 11
                },
                {
                    "attributes" : {
                        "POSITION" : 12,
                        "NORMAL" : 13,
                        "TEXCOORD_0" : 14
                    },
                    "indices" : 15
                },
                {
                    "attributes" : {
                        "POSITION" : 16,
                        "NORMAL" : 17,
                        "TEXCOORD_0" : 18
                    },
                    "indices" : 19
                },
                {
                    "attributes" : {
                        "POSITION" : 20,
                        "NORMAL" : 21,
                        "TEXCOORD_0" : 22
                    },
                    "indices" : 23
                },
                {
                    "attributes" : {
                        "POSITION" : 24,
                        "NORMAL" : 25,
                        "TEXCOORD_0" : 26
                    },
                    "indices" : 27
                },
                {
                    "attributes" : {
                        "POSITION" : 28,
                        "NORMAL" : 29,
                        "TEXCOORD_0" : 30
                    },
                    "indices" : 31
                },
                {
                    "attributes" : {
                        "POSITION" : 32,
                        "NORMAL" : 33,
                        "TEXCOORD_0" : 34
                    },
                    "indices" : 35
                },
                {
                    "attributes" : {
                        "POSITION" : 36,
                        "NORMAL" : 37,
                        "TEXCOORD_0" : 38
                    },
                    "indices" : 39
                },
                {
                    "attributes" : {
                        "POSITION" : 40,
                        "NORMAL" : 41,
                        "TEXCOORD_0" : 42
                    },
                    "indices" : 43
                },
                {
                    "attributes" : {
                        "POSITION" : 44,
                        "NORMAL" : 45,
                        "TEXCOORD_0" : 46
                    },
                    "indices" : 47
                },
                {
                    "attributes" : {
                        "POSITION" : 48,
                        "NORMAL" : 49,
                        "TEXCOORD_0" : 50
                    },
                    "indices" : 51
                }
            ]
        }
    ],
    "accessors" : [
        {
            "bufferView" : 0,
            "componentType" : 5126,
            "count" : 1219,
            "max" : [
                79.8585205078125,
                42.56868362426758,
                -84.6588134765625
            ],
            "min" : [
                -51.84443664550781,
                -126.66392517089844,
                -182.50405883789062
            ],
            "type" : "VEC3"
        },
        {
            "bufferView" : 1,
            "componentType" : 5126,
            "count" : 1219,
            "type" : "VEC3"
        },
        {
            "bufferView" : 2,
            "componentType" : 5126,
            "count" : 1219,
            "type" : "VEC2"
        },
        {
            "bufferView" : 3,
            "componentType" : 5123,
            "count" : 3681,
            "type" : "SCALAR"
        },
        {
            "bufferView" : 4,
            "componentType" : 5126,
            "count" : 1432,
            "max" : [
                96.046630859375,
                97.10985565185547,
                160.7958984375
            ],
            "min" : [
                -91.275634765625,
                -107.36390686035156,
                -166.29090881347656
            ],
            "type" : "VEC3"
        },
        {
            "bufferView" : 5,
            "componentType" : 5126,
            "count" : 1432,
            "type" : "VEC3"
        },
        {
            "bufferView" : 6,
            "componentType" : 5126,
            "count" : 1432,
            "type" : "VEC2"
        },
        {
            "bufferView" : 7,
            "componentType" : 5123,
            "count" : 2886,
            "type" : "SCALAR"
        },
        {
            "bufferView" : 8,
            "componentType" : 5126,
            "count" : 5350,
            "max" : [
                335.71923828125,
                121.53170776367188,
                182.55657958984375
            ],
            "min" : [
                -347.23046875,
                -127.91133117675781,
                -178.82887268066406
            ],
            "type" : "VEC3"
        },
        {
            "bufferView" : 9,
            "componentType" : 5126,
            "count" : 5350,
            "type" : "VEC3"
        },
        {
            "bufferView" : 10,
            "componentType" : 5126,
            "count" : 5350,
            "type" : "VEC2"
        },
        {
            "bufferView" : 11,
            "componentType" : 5123,
            "count" : 17739,
            "type" : "SCALAR"
        },
        {
            "bufferView" : 12,
            "componentType" : 5126,
            "count" : 2359,
            "max" : [
                72.7681884765625,
                148.49826049804688,
                148.9852294921875
            ],
            "min" : [
                -71.2501220703125,
                -152.83103942871094,
                -200.10952758789062
            ],
            "type" : "VEC3"
        },
        {
            "bufferView" : 13,
            "componentType" : 5126,
            "count" : 2359,
            "type" : "VEC3"
        },
        {
            "bufferView" : 14,
            "componentType" : 5126,
            "count" : 2359,
            "type" : "VEC2"
        },
        {
            "bufferView" : 15,
            "componentType" : 5123,
            "count" : 5892,
            "type" : "SCALAR"
        },
        {
            "bufferView" : 16,
            "componentType" : 5126,
            "count" : 714,
            "max" : [
                24.5372314453125,
                -45.64497375488281,
                133.6795654296875
            ],
            "min" : [
                -27.9180908203125,
                -71.27110290527344,
                88.54632568359375
            ],
            "type" : "VEC3"
        },
        {
            "bufferView" : 17,
            "componentType" : 5126,
            "count" : 714,
            "type" : "VEC3"
        },
        {
            "bufferView" : 18,
            "componentType" : 5126,
            "count" : 714,
            "type" : "VEC2"
        },
        {
            "bufferView" : 19,
            "componentType" : 5123,
            "count" : 2700,
            "type" : "SCALAR"
        },
        {
            "bufferView" : 20,
            "componentType" : 5126,
            "count" : 588,
            "max" : [
                30.849609375,
                -48.59864807128906,
                140.374267578125
            ],
            "min" : [
                -31.6937255859375,
                -79.15760803222656,
                86.4542236328125
            ],
            "type" : "VEC3"
        },
        {
            "bufferView" : 21,
            "componentType" : 5126,
            "count" : 588,
            "type" : "VEC3"
        },
        {
            "bufferView" : 22,
            "componentType" : 5126,
            "count" : 588,
            "type" : "VEC2"
        },
        {
            "bufferView" : 23,
            "componentType" : 5123,
            "count" : 2268,
            "type" : "SCALAR"
        },
        {
            "bufferView" : 24,
            "componentType" : 5126,
            "count" : 2686,
            "max" : [
                61.33984375,
                108.6786117553711,
                152.328857421875
            ],
            "min" : [
                -84.4095458984375,
                -125.60569763183594,
                -201.35885620117188
            ],
            "type" : "VEC3"
        },
        {
            "bufferView" : 25,
            "componentType" : 5126,
            "count" : 2686,
            "type" : "VEC3"
        },
        {
            "bufferView" : 26,
            "componentType" : 5126,
            "count" : 2686,
            "type" : "VEC2"
        },
        {
            "bufferView" : 27,
            "componentType" : 5123,
            "count" : 7029,
            "type" : "SCALAR"
        },
        {
            "bufferView" : 28,
            "componentType" : 5126,
            "count" : 10553,
            "max" : [
                948.863525390625,
                157.15679931640625,
                201.53485107421875
            ],
            "min" : [
                -943.6446533203125,
                -146.04319763183594,
                -160.49073791503906
            ],
            "type" : "VEC3"
        },
        {
            "bufferView" : 29,
            "componentType" : 5126,
            "count" : 10553,
            "type" : "VEC3"
        },
        {
            "bufferView" : 30,
            "componentType" : 5126,
            "count" : 10553,
            "type" : "VEC2"
        },
        {
            "bufferView" : 31,
            "componentType" : 5123,
            "count" : 23952,
            "type" : "SCALAR"
        },
        {
            "bufferView" : 32,
            "componentType" : 5126,
            "count" : 102,
            "max" : [
                56.989501953125,
                91.90748596191406,
                48.99432373046875
            ],
            "min" : [
                -52.43017578125,
                -3.095428466796875,
                -158.4534912109375
            ],
            "type" : "VEC3"
        },
        {
            "bufferView" : 33,
            "componentType" : 5126,
            "count" : 102,
            "type" : "VEC3"
        },
        {
            "bufferView" : 34,
            "componentType" : 5126,
            "count" : 102,
            "type" : "VEC2"
        },
        {
            "bufferView" : 35,
            "componentType" : 5123,
            "count" : 186,
            "type" : "SCALAR"
        },
        {
            "bufferView" : 36,
            "componentType" : 5126,
            "count" : 15,
            "max" : [
                -55.222900390625,
                -2.2606048583984375,
                -84.80374145507812
            ],
            "min" : [
                -62.485107421875,
                -105.40885925292969,
                -160.91867065429688
            ],
            "type" : "VEC3"
        },
        {
            "bufferView" : 37,
            "componentType" : 5126,
            "count" : 15,
            "type" : "VEC3"
        },
        {
            "bufferView" : 38,
            "componentType" : 5126,
            "count" : 15,
            "type" : "VEC2"
        },
        {
            "bufferView" : 39,
            "componentType" : 5123,
            "count" : 27,
            "type" : "SCALAR"
        },
        {
            "bufferView" : 40,
            "componentType" : 5126,
            "count" : 1359,
            "max" : [
                49.16627883911133,
                172.11209106445312,
                108.01007080078125
            ],
            "min" : [
                -68.240478515625,
                -160.4674835205078,
                -146.77862548828125
            ],
            "type" : "VEC3"
        },
        {
            "bufferView" : 41,
            "componentType" : 5126,
            "count" : 1359,
            "type" : "VEC3"
        },
        {
            "bufferView" : 42,
            "componentType" : 5126,
            "count" : 1359,
            "type" : "VEC2"
        },
        {
            "bufferView" : 43,
            "componentType" : 5123,
            "count" : 3372,
            "type" : "SCALAR"
        },
        {
            "bufferView" : 44,
            "componentType" : 5126,
            "count" : 418,
            "max" : [
                582.8574829101562,
                117.57595825195312,
                190.223388671875
            ],
            "min" : [
                -596.28271484375,
                -8.686233520507812,
                79.07376861572266
            ],
            "type" : "VEC3"
        },
        {
            "bufferView" : 45,
            "componentType" : 5126,
            "count" : 418,
            "type" : "VEC3"
        },
        {
            "bufferView" : 46,
            "componentType" : 5126,
            "count" : 418,
            "type" : "VEC2"
        },
        {
            "bufferView" : 47,
            "componentType" : 5123,
            "count" : 570,
            "type" : "SCALAR"
        },
        {
            "bufferView" : 48,
            "componentType" : 5126,
            "count" : 152,
            "max" : [
                944.133056640625,
                66.31361389160156,
                26.481689453125
            ],
            "min" : [
                -943.4586181640625,
                -127.17555236816406,
                -154.43350219726562
            ],
            "type" : "VEC3"
        },
        {
            "bufferView" : 49,
            "componentType" : 5126,
            "count" : 152,
            "type" : "VEC3"
        },
        {
            "bufferView" : 50,
            "componentType" : 5126,
            "count" : 152,
            "type" : "VEC2"
        },
        {
            "bufferView" : 51,
            "componentType" : 5123,
            "count" : 384,
            "type" : "SCALAR"
        }
    ],
    "bufferViews" : [
        {
            "buffer" : 0,
            "byteLength" : 14628,
            "byteOffset" : 0
        },
        {
            "buffer" : 0,
            "byteLength" : 14628,
            "byteOffset" : 14628
        },
        {
            "buffer" : 0,
            "byteLength" : 9752,
            "byteOffset" : 29256
        },
        {
            "buffer" : 0,
            "byteLength" : 7362,
            "byteOffset" : 39008
        },
        {
            "buffer" : 0,
            "byteLength" : 17184,
            "byteOffset" : 46372
        },
        {
            "buffer" : 0,
            "byteLength" : 17184,
            "byteOffset" : 63556
        },
        {
            "buffer" : 0,
            "byteLength" : 11456,
            "byteOffset" : 80740
        },
        {
            "buffer" : 0,
            "byteLength" : 5772,
            "byteOffset" : 92196
        },
        {
            "buffer" : 0,
            "byteLength" : 64200,
            "byteOffset" : 97968
        },
        {
            "buffer" : 0,
            "byteLength" : 64200,
            "byteOffset" : 162168
        },
        {
            "buffer" : 0,
            "byteLength" : 42800,
            "byteOffset" : 226368
        },
        {
            "buffer" : 0,
            "byteLength" : 35478,
            "byteOffset" : 269168
        },
        {
            "buffer" : 0,
            "byteLength" : 28308,
            "byteOffset" : 304648
        },
        {
            "buffer" : 0,
            "byteLength" : 28308,
            "byteOffset" : 332956
        },
        {
            "buffer" : 0,
            "byteLength" : 18872,
            "byteOffset" : 361264
        },
        {
            "buffer" : 0,
            "byteLength" : 11784,
            "byteOffset" : 380136
        },
        {
            "buffer" : 0,
            "byteLength" : 8568,
            "byteOffset" : 391920
        },
        {
            "buffer" : 0,
            "byteLength" : 8568,
            "byteOffset" : 400488
        },
        {
            "buffer" : 0,
            "byteLength" : 5712,
            "byteOffset" : 409056
        },
        {
            "buffer" : 0,
            "byteLength" : 5400,
            "byteOffset" : 414768
        },
        {
            "buffer" : 0,
            "byteLength" : 7056,
            "byteOffset" : 420168
        },
        {
            "buffer" : 0,
            "byteLength" : 7056,
            "byteOffset" : 427224
        },
        {
            "buffer" : 0,
            "byteLength" : 4704,
            "byteOffset" : 434280
        },
        {
            "buffer" : 0,
            "byteLength" : 4536,
            "byteOffset" : 438984
        },
        {
            "buffer" : 0,
            "byteLength" : 32232,
            "byteOffset" : 443520
        },
        {
            "buffer" : 0,
            "byteLength" : 32232,
            "byteOffset" : 475752
        },
        {
            "buffer" : 0,
            "byteLength" : 21488,
            "byteOffset" : 507984
        },
        {
            "buffer" : 0,
            "byteLength" : 14058,
            "byteOffset" : 529472
        },
        {
            "buffer" : 0,
            "byteLength" : 126636,
            "byteOffset" : 543532
        },
        {
            "buffer" : 0,
            "byteLength" : 126636,
            "byteOffset" : 670168
        },
        {
            "buffer" : 0,
            "byteLength" : 84424,
            "byteOffset" : 796804
        },
        {
            "buffer" : 0,
            "byteLength" : 47904,
            "byteOffset" : 881228
        },
        {
            "buffer" : 0,
            "byteLength" : 1224,
            "byteOffset" : 929132
        },
        {
            "buffer" : 0,
            "byteLength" : 1224,
            "byteOffset" : 930356
        },
        {
            "buffer" : 0,
            "byteLength" : 816,
            "byteOffset" : 931580
        },
        {
            "buffer" : 0,
            "byteLength" : 372,
            "byteOffset" : 932396
        },
        {
            "buffer" : 0,
            "byteLength" : 180,
            "byteOffset" : 932768
        },
        {
            "buffer" : 0,
            "byteLength" : 180,
            "byteOffset" : 932948
        },
        {
            "buffer" : 0,
            "byteLength" : 120,
            "byteOffset" : 933128
        },
        {
            "buffer" : 0,
            "byteLength" : 54,
            "byteOffset" : 933248
        },
        {
            "buffer" : 0,
            "byteLength" : 16308,
            "byteOffset" : 933304
        },
        {
            "buffer" : 0,
            "byteLength" : 16308,
            "byteOffset" : 949612
        },
        {
            "buffer" : 0,
            "byteLength" : 10872,
            "byteOffset" : 965920
        },
        {
            "buffer" : 0,
            "byteLength" : 6744,
            "byteOffset" : 976792
        },
        {
            "buffer" : 0,
            "byteLength" : 5016,
            "byteOffset" : 983536
        },
        {
            "buffer" : 0,
            "byteLength" : 5016,
            "byteOffset" : 988552
        },
        {
            "buffer" : 0,
            "byteLength" : 3344,
            "byteOffset" : 993568
        },
        {
            "buffer" : 0,
            "byteLength" : 1140,
            "byteOffset" : 996912
        },
        {
            "buffer" : 0,
            "byteLength" : 1824,
            "byteOffset" : 998052
        },
        {
            "buffer" : 0,
            "byteLength" : 1824,
            "byteOffset" : 999876
        },
        {
            "buffer" : 0,
            "byteLength" : 1216,
            "byteOffset" : 1001700
        },
        {
            "buffer" : 0,
            "byteLength" : 768,
            "byteOffset" : 1002916
        }
    ],
    "buffers" : [
        {
            "byteLength" : 1003684,
            "uri" : "data:application/octet-stream;base64,"
        }
    ]
}
